<?xml version="1.0" encoding="utf-8"?>
<!-- Generator: Adobe Illustrator 16.0.0, SVG Export Plug-In . SVG Version: 6.00 Build 0)  -->
<!DOCTYPE svg PUBLIC "-//W3C//DTD SVG 1.1//EN" "http://www.w3.org/Graphics/SVG/1.1/DTD/svg11.dtd">
<svg version="1.1" xmlns="http://www.w3.org/2000/svg" xmlns:xlink="http://www.w3.org/1999/xlink" x="0px" y="0px" width="95px"
	 height="30px" viewBox="0 0 95 30" enable-background="new 0 0 95 30" xml:space="preserve">
<g id="圆角矩形_4_1_" opacity="0.4706" enable-background="new    ">
	<g id="圆角矩形_4">
		<g>
			<path fill-rule="evenodd" clip-rule="evenodd" fill="#FFFFFF" d="M23,1H7C3.686,1,1,3.687,1,7v16c0,3.313,2.686,6,6,6h16
				c3.313,0,6-2.687,6-6V7C29,3.687,26.313,1,23,1z"/>
		</g>
	</g>
</g>
<g id="圆角矩形_4_拷贝_1_" opacity="0.749" enable-background="new    ">
	<g id="圆角矩形_4_拷贝">
		<g>
			<path fill-rule="evenodd" clip-rule="evenodd" fill="#FFFFFF" d="M57,4H46c-3.313,0-6,2.687-6,6v11c0,3.313,2.687,6,6,6h11
				c3.313,0,6-2.687,6-6V10C63,6.687,60.313,4,57,4z"/>
		</g>
	</g>
</g>
<g id="圆角矩形_4_拷贝_2_1_" enable-background="new    ">
	<g id="圆角矩形_4_拷贝_2">
		<g>
			<path fill-rule="evenodd" clip-rule="evenodd" fill="#FFFFFF" d="M89,7h-6c-3.313,0-6,2.687-6,6v6c0,3.313,2.687,6,6,6h6
				c3.313,0,6-2.687,6-6v-6C95,9.687,92.313,7,89,7z"/>
		</g>
	</g>
</g>
</svg>
